<svg width="255" height="211" viewBox="0 0 255 211" fill="none" xmlns="http://www.w3.org/2000/svg">
<g clip-path="url(#clip0_67_2)">
<path d="M254.882 25.1963V185.818L250.271 195.983C244.772 201.542 236.625 210.527 227.19 210.544L34.4707 210.881C16.9122 210.912 0.260336 197.168 0.246134 181.746L0.118315 34.571C0.108847 24.6478 2.40721 15.862 9.70232 9.75699C17.272 3.41932 24.2973 0.104451 34.4849 0.118698L225.931 0.384647C235.967 0.398895 244.46 8.76918 250.285 15.1258L254.879 25.1963H254.882ZM136.945 147.011C141.275 152.857 144.565 161.464 150.688 164.877C158.973 169.49 169.189 166.869 178.245 167.98C182.674 168.524 187.334 167.301 190.305 165.121C192.575 163.457 196.348 157.181 194.22 154.376C187.391 145.382 180.764 137.458 173.39 129.012C160.062 113.746 185.098 125.11 188.378 89.9811C189.507 77.8994 187.102 64.6399 177.741 56.6021C166.682 47.1086 152.634 46.6124 138.792 47.0018L67.4028 49.0083C63.2582 49.1246 61.0332 52.9928 61.0829 56.792L62.4392 162.334C65.0642 165.195 69.945 167.46 73.5003 167.408L106.454 166.914C111.891 166.833 114.797 163.675 114.79 158.228L114.76 132.87C114.76 130.911 118.573 127.753 120.523 127.877C127.428 128.313 129.759 137.303 136.948 147.011H136.945Z" fill="#FF5555" stroke="#FF5555" stroke-miterlimit="10"/>
<path d="M162.078 94.8727L101.476 115.087C108.648 108.617 116.343 105.551 126.386 99.617L94.0293 84.3012L134.915 66.2499L123.037 80.6658L162.078 94.8727Z" fill="#FF5555" stroke="#FF5555" stroke-miterlimit="10"/>
</g>
<defs>
<clipPath id="clip0_67_2">
<rect width="255" height="211" fill="white"/>
</clipPath>
</defs>
</svg>
